<?xml version="1.0" standalone="no"?>
<!DOCTYPE svg PUBLIC "-//W3C//DTD SVG 20010904//EN"
 "http://www.w3.org/TR/2001/REC-SVG-20010904/DTD/svg10.dtd">
<svg version="1.0" xmlns="http://www.w3.org/2000/svg"
 width="128.000000pt" height="128.000000pt" viewBox="0 0 128.000000 128.000000"
 preserveAspectRatio="xMidYMid meet">

<g transform="translate(0.000000,128.000000) scale(0.100000,-0.100000)"
fill="#000000" stroke="none">
<path d="M716 1233 c-16 -8 -52 -16 -80 -17 -60 -2 -121 -29 -143 -62 -8 -13
-20 -21 -26 -17 -5 3 -7 1 -3 -5 3 -6 1 -14 -5 -17 -5 -4 -8 -14 -5 -22 5 -11
2 -13 -9 -9 -9 3 -13 2 -10 -4 3 -6 2 -10 -4 -10 -6 0 -8 -6 -5 -14 3 -8 1
-17 -5 -20 -22 -14 -23 -90 -2 -144 12 -29 21 -64 21 -78 0 -24 21 -75 42
-101 13 -17 38 -5 49 23 11 31 20 30 58 -3 28 -25 45 -73 21 -58 -15 9 -12 -2
6 -19 8 -9 11 -16 5 -16 -6 0 -4 -18 6 -46 15 -43 17 -45 47 -39 l31 7 -35
-31 c-46 -40 -72 -39 -137 6 -45 31 -53 41 -53 68 0 42 -8 47 -33 22 l-21 -21
44 -38 43 -38 -29 0 c-16 0 -45 4 -64 9 -59 15 -185 22 -172 9 6 -6 62 -15
124 -20 62 -5 119 -14 128 -19 10 -7 -5 -8 -50 -5 -51 5 -62 4 -51 -6 8 -9 44
-12 114 -11 101 1 101 1 77 -18 -14 -10 -20 -19 -14 -19 5 0 19 7 30 15 25 19
40 19 24 0 -17 -20 -6 -19 28 2 26 17 26 17 13 0 -16 -20 -2 -22 24 -3 11 8
25 12 31 9 7 -2 21 4 32 15 11 11 28 24 38 30 10 6 16 14 12 18 -4 4 -13 2
-20 -3 -7 -6 -23 -14 -35 -17 -27 -9 -32 14 -8 34 8 7 15 24 15 38 0 24 -1 24
-19 8 -18 -16 -18 -16 -13 9 5 27 26 43 82 61 l35 12 -33 7 c-18 4 -35 11 -38
16 -2 5 -23 13 -45 19 -37 10 -40 13 -37 43 2 18 8 32 15 32 17 0 36 22 29 33
-3 6 -30 18 -59 27 -28 10 -56 21 -61 25 -11 10 23 112 34 105 5 -3 6 -13 3
-23 -3 -10 10 -2 30 17 l37 35 0 -26 c0 -18 -7 -29 -21 -33 -15 -5 -18 -10 -9
-20 14 -17 61 -16 84 1 14 10 16 16 6 34 -6 12 -18 19 -25 16 -13 -5 -43 50
-32 60 8 8 58 -26 84 -55 11 -15 25 -22 30 -18 4 5 0 13 -10 18 -9 6 -17 17
-17 25 0 12 3 11 19 -3 10 -10 21 -25 24 -33 3 -9 6 -3 6 13 1 15 6 27 12 27
5 0 8 -4 4 -9 -3 -5 0 -13 6 -17 9 -5 10 1 5 19 -3 14 -2 29 4 32 18 11 -58
120 -92 131 -16 5 -18 8 -7 15 10 6 7 9 -11 10 -24 2 -44 4 -64 8 -4 0 2 10
15 21 29 23 24 25 -15 3z m-30 -240 c-7 -17 -8 -17 -22 1 -11 16 -11 21 -2 27
18 11 32 -6 24 -28z m69 -33 c3 -5 -1 -10 -10 -10 -9 0 -13 5 -10 10 3 6 8 10
10 10 2 0 7 -4 10 -10z m-240 -70 c-3 -5 -11 -10 -16 -10 -6 0 -7 5 -4 10 3 6
11 10 16 10 6 0 7 -4 4 -10z m28 -58 c10 -2 17 3 17 13 0 19 17 19 36 1 21
-21 17 -32 -15 -46 -22 -9 -35 -9 -50 -1 -28 15 -45 48 -28 54 6 2 14 -1 17
-7 3 -6 13 -12 23 -14z m116 -6 c12 -14 2 -28 -25 -32 -8 -1 -11 25 -5 44 3 7
20 0 30 -12z m-124 -306 c3 -5 1 -10 -4 -10 -6 0 -11 5 -11 10 0 6 2 10 4 10
3 0 8 -4 11 -10z"/>
<path d="M812 941 c2 -7 7 -12 11 -12 12 1 9 15 -3 20 -7 2 -11 -2 -8 -8z"/>
<path d="M790 850 c-11 -7 -7 -10 18 -10 17 0 32 5 32 10 0 13 -30 13 -50 0z"/>
<path d="M787 789 c-25 -15 -13 -26 23 -21 17 2 30 10 30 18 0 16 -27 18 -53
3z"/>
<path d="M815 750 c-3 -5 1 -10 10 -10 9 0 13 5 10 10 -3 6 -8 10 -10 10 -2 0
-7 -4 -10 -10z"/>
<path d="M521 644 c0 -11 3 -14 6 -6 3 7 2 16 -1 19 -3 4 -6 -2 -5 -13z"/>
<path d="M814 604 c21 -14 46 -24 56 -21 11 3 20 1 22 -3 2 -5 21 -11 43 -15
l40 -6 -44 20 c-23 12 -47 19 -51 16 -5 -3 -24 4 -42 15 -48 29 -69 24 -24 -6z"/>
<path d="M827 553 c-7 -7 91 -82 107 -83 5 0 -11 20 -36 45 -45 44 -58 51 -71
38z"/>
<path d="M750 539 c0 -5 5 -7 10 -4 6 3 10 8 10 11 0 2 -4 4 -10 4 -5 0 -10
-5 -10 -11z"/>
<path d="M157 529 c-19 -11 -85 -132 -103 -190 -6 -21 -8 -43 -3 -52 6 -10 4
-14 -8 -13 -9 0 -18 -5 -21 -13 -2 -8 0 -11 6 -7 6 3 9 -4 8 -19 0 -14 -7 -25
-13 -25 -7 0 -13 -3 -14 -7 0 -5 -2 -18 -3 -31 -2 -17 10 -34 41 -61 62 -55
57 -79 -10 -44 -31 16 -31 15 -17 -2 14 -17 13 -18 -4 -12 -17 7 -17 5 -5 -10
40 -54 59 -54 88 -3 12 22 29 44 38 48 8 5 27 31 42 58 31 58 52 63 63 14 4
-19 18 -62 32 -95 20 -49 29 -61 50 -63 31 -4 53 15 62 54 3 16 13 40 21 53
11 17 12 26 4 34 -8 8 -11 6 -11 -6 0 -9 -4 -17 -10 -17 -5 0 -10 -7 -10 -15
0 -16 -23 -18 -54 -6 -18 7 -18 8 -3 14 9 3 17 15 17 26 0 11 4 22 9 26 6 3 6
-7 0 -27 -12 -42 -12 -43 6 -28 9 7 14 18 12 24 -3 6 3 20 12 30 15 18 14 19
-34 13 -40 -5 -47 -4 -35 6 17 13 15 47 -1 47 -6 0 -7 5 -4 10 3 6 1 10 -5 10
-7 0 -9 8 -5 20 4 12 2 20 -5 20 -23 0 -3 51 28 70 18 11 32 24 32 29 0 5 12
14 28 19 20 8 22 11 8 11 -11 1 -34 -10 -52 -24 -40 -31 -43 -31 -40 0 3 22 1
23 -18 13 -16 -8 -13 -3 9 20 31 32 51 42 40 20 -4 -7 0 -5 7 4 8 9 29 18 48
20 l34 3 -29 20 c-23 15 -44 19 -88 18 -36 -2 -70 3 -87 12 -34 17 -30 17 -53
4z m129 -154 c-3 -17 -44 -50 -53 -42 -3 3 8 17 23 31 35 30 33 30 30 11z m72
-315 c-7 -10 -14 -17 -17 -15 -4 4 18 35 25 35 2 0 -1 -9 -8 -20z"/>
<path d="M987 510 c3 -11 7 -20 9 -20 2 0 4 9 4 20 0 11 -4 20 -9 20 -5 0 -7
-9 -4 -20z"/>
<path d="M945 490 c3 -5 10 -10 16 -10 5 0 9 5 9 10 0 6 -7 10 -16 10 -8 0
-12 -4 -9 -10z"/>
<path d="M1001 459 c-9 -16 -24 -29 -33 -29 -26 0 -30 -17 -5 -25 20 -6 19 -8
-13 -15 -34 -9 -150 -67 -150 -76 0 -2 17 3 38 12 68 29 91 36 114 32 35 -5
28 -31 -10 -39 -19 -4 -39 -12 -45 -19 -9 -10 -6 -11 13 -6 24 6 24 5 4 -5
-38 -20 -45 -51 -24 -109 10 -28 22 -57 27 -64 4 -7 -3 0 -16 15 l-24 27 -46
-28 c-26 -15 -60 -32 -76 -39 l-30 -11 35 7 c56 11 123 9 128 -5 2 -7 12 -12
23 -12 10 0 19 -4 19 -10 0 -15 -21 -12 -40 5 -12 11 -27 13 -59 7 l-43 -7 40
-32 c30 -24 49 -32 75 -31 40 1 47 14 47 91 0 51 16 63 26 20 4 -16 15 -39 24
-53 9 -14 20 -33 23 -42 9 -25 112 -26 121 -2 12 32 7 56 -11 50 -10 -3 -37
-9 -60 -15 -39 -8 -43 -7 -43 10 0 10 6 19 13 19 11 0 141 64 155 76 17 14
-56 201 -116 299 -25 40 -59 42 -81 4z m-53 -284 c-3 -3 -9 2 -12 12 -6 14 -5
15 5 6 7 -7 10 -15 7 -18z m182 -9 c0 -3 -4 -8 -10 -11 -5 -3 -10 -1 -10 4 0
6 5 11 10 11 6 0 10 -2 10 -4z m50 -6 c-8 -6 -24 -16 -35 -22 -20 -11 -20 -11
-1 11 11 11 26 21 35 21 14 0 14 -2 1 -10z"/>
<path d="M721 458 c-32 -9 -33 -11 -28 -49 3 -25 1 -39 -6 -39 -6 0 -2 -6 9
-14 28 -20 90 -30 98 -17 4 7 1 9 -8 5 -9 -3 -24 -3 -33 2 -19 8 -28 11 -40
13 -5 0 -9 19 -11 41 -2 37 -1 39 32 45 19 4 48 4 66 0 29 -6 31 -9 27 -44 -1
-20 -7 -42 -11 -50 -7 -11 -4 -11 15 0 13 7 19 14 12 16 -7 3 -10 17 -6 39 5
32 3 35 -30 49 -41 17 -39 17 -86 3z"/>
<path d="M420 160 c0 -5 4 -10 9 -10 6 0 13 5 16 10 3 6 -1 10 -9 10 -9 0 -16
-4 -16 -10z"/>
<path d="M508 153 c7 -3 16 -2 19 1 4 3 -2 6 -13 5 -11 0 -14 -3 -6 -6z"/>
<path d="M770 10 c14 -4 36 -8 50 -9 20 -1 22 1 10 9 -8 5 -31 9 -50 9 -32 -1
-33 -2 -10 -9z"/>
</g>
</svg>
