<?xml version="1.0" standalone="no"?>
<!DOCTYPE svg PUBLIC "-//W3C//DTD SVG 20010904//EN"
 "http://www.w3.org/TR/2001/REC-SVG-20010904/DTD/svg10.dtd">
<svg version="1.0" xmlns="http://www.w3.org/2000/svg"
 width="128.000000pt" height="128.000000pt" viewBox="0 0 128.000000 128.000000"
 preserveAspectRatio="xMidYMid meet">

<g transform="translate(0.000000,128.000000) scale(0.100000,-0.100000)"
fill="#000000" stroke="none">
<path d="M597 1259 c-10 -6 -25 -8 -33 -5 -8 3 -14 2 -14 -2 0 -15 -50 -63
-59 -57 -7 3 -8 0 -5 -9 4 -11 -3 -15 -28 -18 -25 -2 -33 -8 -33 -23 0 -11 -5
-20 -12 -20 -17 0 -29 -15 -12 -16 8 -1 19 -1 24 0 6 1 -1 -8 -14 -19 -21 -18
-22 -24 -12 -46 13 -28 28 -24 41 12 11 29 46 44 103 44 74 0 90 -8 83 -43 -3
-16 -1 -36 5 -43 19 -23 28 -82 15 -98 -6 -7 -28 -19 -48 -25 -44 -14 -60 -31
-48 -51 5 -8 4 -22 -2 -34 -9 -17 -12 -18 -22 -4 -12 16 -62 29 -83 21 -7 -3
-13 -14 -13 -24 0 -14 8 -19 33 -20 23 -1 26 -3 10 -6 -26 -5 -30 -21 -8 -29
20 -8 47 15 40 33 -3 9 0 13 7 10 7 -2 12 -12 12 -21 -1 -12 3 -15 17 -11 22
7 24 -3 4 -29 -7 -10 -19 -15 -24 -11 -16 9 -51 -4 -51 -20 0 -8 9 -16 20 -20
42 -13 131 -135 99 -135 -21 0 -69 54 -70 78 -1 16 -3 20 -6 10 -8 -30 16 -95
41 -111 55 -36 72 -33 140 27 35 30 71 71 80 90 23 48 21 93 -5 106 -19 10
-20 10 -10 -9 22 -40 6 -108 -33 -140 -14 -11 -16 -11 -15 5 0 11 4 28 8 39 4
11 3 34 -2 51 -13 42 -2 84 22 84 11 0 24 14 36 39 10 22 29 50 42 63 55 51
73 128 48 204 -20 58 -53 96 -115 132 -25 14 -47 29 -50 32 -8 9 -60 30 -73
30 -7 0 -20 -5 -30 -11z m158 -316 c-21 -6 -37 -27 -42 -55 -3 -19 5 -22 25
-10 7 5 10 16 6 25 -7 18 -4 20 20 11 26 -10 -7 -67 -44 -77 -13 -3 -17 0 -13
9 3 8 -1 14 -10 14 -23 0 -26 32 -4 63 14 20 26 27 50 26 22 -1 25 -3 12 -6z
m-128 -125 c-26 -26 -58 -28 -36 -2 6 8 16 11 21 8 5 -3 12 4 15 16 4 13 9 18
15 12 6 -6 0 -19 -15 -34z m38 -208 c-3 -5 -14 -6 -25 -3 -16 4 -18 8 -9 19 9
11 15 11 25 3 8 -6 12 -15 9 -19z m-60 -98 c-5 -5 -63 26 -69 37 -4 5 12 0 33
-12 22 -12 38 -23 36 -25z"/>
<path d="M492 1008 c-7 -7 -12 -21 -11 -32 0 -20 1 -20 11 2 7 13 20 22 35 22
12 0 23 5 23 10 0 14 -43 13 -58 -2z"/>
<path d="M420 990 c0 -5 7 -10 16 -10 8 0 12 5 9 10 -3 6 -10 10 -16 10 -5 0
-9 -4 -9 -10z"/>
<path d="M510 970 c-21 -13 -10 -18 29 -13 23 4 29 8 20 14 -18 11 -30 11 -49
-1z"/>
<path d="M415 951 c-6 -11 9 -23 19 -14 9 9 7 23 -3 23 -6 0 -12 -4 -16 -9z"/>
<path d="M430 876 c0 -19 47 -33 63 -17 14 14 8 19 -31 27 -25 5 -32 3 -32
-10z"/>
<path d="M797 672 c-8 -47 -41 -92 -101 -137 -43 -34 -58 -55 -37 -55 15 0
137 123 153 155 29 57 31 75 10 75 -15 0 -21 -9 -25 -38z"/>
<path d="M868 693 c7 -3 16 -2 19 1 4 3 -2 6 -13 5 -11 0 -14 -3 -6 -6z"/>
<path d="M1048 673 c7 -3 16 -2 19 1 4 3 -2 6 -13 5 -11 0 -14 -3 -6 -6z"/>
<path d="M1065 651 c-3 -5 6 -67 20 -136 31 -155 31 -154 1 -186 -13 -14 -26
-34 -29 -45 -4 -17 -5 -17 -6 -1 -1 16 -6 15 -52 -9 -28 -14 -49 -28 -46 -30
3 -3 17 2 32 12 22 14 30 15 49 4 27 -14 46 -7 47 18 3 54 18 -71 20 -165 1
-64 6 -113 11 -113 6 0 9 32 8 72 -1 40 -2 118 -1 173 1 93 3 101 23 110 16 7
31 33 50 85 43 122 35 160 -41 181 -25 7 -50 18 -54 26 -9 15 -23 17 -32 4z"/>
<path d="M307 524 c-3 -3 -18 -30 -32 -60 -15 -30 -30 -52 -34 -50 -4 3 -8
-15 -10 -39 -2 -41 2 -47 53 -99 31 -32 64 -56 75 -56 20 0 20 1 -4 48 -36 72
-61 197 -48 233 11 29 11 34 0 23z"/>
<path d="M988 513 c7 -3 16 -2 19 1 4 3 -2 6 -13 5 -11 0 -14 -3 -6 -6z"/>
<path d="M864 495 c-40 -7 -80 -18 -90 -25 -13 -8 -14 -10 -3 -7 9 3 51 11 95
18 43 7 83 16 89 21 12 10 -3 9 -91 -7z"/>
<path d="M660 465 l-75 -13 67 -1 c69 -1 98 5 98 20 0 5 -3 8 -7 8 -5 -1 -42
-8 -83 -14z"/>
<path d="M870 437 c0 -7 8 -17 18 -24 15 -9 21 -7 31 9 7 11 10 23 6 26 -3 4
-10 0 -14 -7 -6 -9 -11 -10 -15 -2 -10 15 -26 14 -26 -2z"/>
<path d="M1210 410 l-25 -8 25 0 c14 0 34 3 45 8 l20 9 -20 -1 c-11 0 -31 -4
-45 -8z"/>
<path d="M887 361 c-3 -11 -2 -22 1 -25 9 -10 34 -7 28 3 -4 5 0 12 6 14 10 4
9 8 -2 16 -21 15 -27 14 -33 -8z"/>
<path d="M1050 350 c-12 -8 -10 -10 8 -10 13 0 20 4 17 10 -7 12 -6 12 -25 0z"/>
<path d="M467 339 c-10 -6 -25 -8 -33 -5 -8 3 -14 -1 -14 -9 0 -20 13 -19 52
5 33 20 28 28 -5 9z"/>
<path d="M838 223 c-8 -10 -24 -55 -35 -100 l-21 -83 24 0 c17 0 25 7 30 24 4
19 14 25 47 29 31 4 44 2 50 -9 9 -16 47 -19 47 -4 0 16 -40 91 -68 128 -27
36 -51 41 -74 15z m54 -68 c2 -15 -3 -21 -21 -23 -21 -3 -23 -1 -18 20 4 12 7
30 7 38 0 13 2 13 14 0 8 -8 16 -24 18 -35z"/>
<path d="M694 170 c18 -111 27 -140 47 -140 23 0 24 6 2 103 -14 63 -21 77
-36 77 -17 0 -19 -5 -13 -40z"/>
<path d="M983 189 c-18 -5 -33 -12 -33 -15 0 -8 63 6 75 17 11 11 1 10 -42 -2z"/>
<path d="M531 171 c-12 -21 -15 -119 -5 -145 8 -22 21 -20 27 3 7 28 73 34 90
8 8 -12 21 -18 34 -15 21 3 18 9 -35 83 -61 85 -92 103 -111 66z m69 -72 c0
-12 -33 -20 -42 -11 -5 5 -6 22 -2 37 l7 28 18 -24 c10 -13 19 -27 19 -30z"/>
<path d="M196 115 c-16 -12 -17 -15 -4 -15 8 0 21 7 28 15 16 19 1 19 -24 0z"/>
<path d="M1030 120 c-9 -6 -10 -10 -3 -10 6 0 15 5 18 10 8 12 4 12 -15 0z"/>
<path d="M880 76 c0 -2 7 -7 16 -10 8 -3 12 -2 9 4 -6 10 -25 14 -25 6z"/>
<path d="M140 54 c-17 -9 -20 -14 -9 -14 9 0 22 7 29 15 15 18 13 18 -20 -1z"/>
<path d="M950 50 c-20 -6 -21 -8 -5 -8 11 0 31 4 45 8 20 6 21 8 5 8 -11 0
-31 -4 -45 -8z"/>
</g>
</svg>
