<?xml version="1.0" standalone="no"?>
<!DOCTYPE svg PUBLIC "-//W3C//DTD SVG 20010904//EN"
 "http://www.w3.org/TR/2001/REC-SVG-20010904/DTD/svg10.dtd">
<svg version="1.0" xmlns="http://www.w3.org/2000/svg"
 width="128.000000pt" height="128.000000pt" viewBox="0 0 128.000000 128.000000"
 preserveAspectRatio="xMidYMid meet">

<g transform="translate(0.000000,128.000000) scale(0.100000,-0.100000)"
fill="#000000" stroke="none">
<path d="M589 1229 c-70 -8 -110 -35 -138 -92 -25 -51 -26 -96 -6 -163 8 -27
15 -62 15 -77 0 -24 4 -28 23 -25 17 2 22 10 23 33 0 17 1 36 2 43 3 20 54 14
79 -10 l23 -21 0 45 c0 29 5 48 13 51 7 3 19 23 27 46 7 23 17 41 21 41 4 0
14 3 23 6 21 8 21 -26 1 -69 l-16 -32 21 24 c11 13 20 36 20 51 0 37 24 45 39
14 19 -42 14 -64 -14 -64 -14 0 -25 -4 -25 -10 0 -5 9 -10 20 -10 33 0 22 -19
-15 -26 -19 -3 -33 -10 -30 -14 3 -5 15 -6 27 -2 14 3 19 2 14 -6 -15 -24 13
-11 33 16 19 25 22 25 32 10 15 -27 25 -22 27 15 1 17 4 50 7 72 14 97 -103
171 -246 154z m211 -155 c0 -8 5 -12 10 -9 15 9 12 -7 -5 -29 -14 -19 -15 -19
-15 6 0 15 -3 34 -7 44 -4 12 -3 15 5 10 7 -4 12 -14 12 -22z m-271 -97 c-2
-1 -12 -9 -22 -16 -15 -12 -17 -12 -11 3 3 9 13 16 22 16 8 0 13 -1 11 -3z"/>
<path d="M514 928 c-5 -8 -2 -9 9 -5 10 3 17 2 17 -4 0 -6 5 -7 10 -4 6 4 8
11 5 16 -8 13 -32 11 -41 -3z"/>
<path d="M727 889 c-20 -17 -37 -37 -37 -45 0 -8 -14 -20 -31 -26 -16 -6 -28
-13 -25 -16 3 -3 -4 -10 -16 -16 -33 -17 -34 -35 -2 -33 32 2 45 -22 15 -30
-11 -3 -18 -10 -15 -15 4 -6 -1 -8 -14 -4 -25 8 -28 4 -37 -61 -8 -60 4 -69
26 -21 19 43 44 51 35 12 l-6 -29 35 37 c19 21 35 47 35 58 0 12 4 19 9 15 15
-9 -16 -86 -46 -117 -15 -16 -21 -28 -14 -28 6 0 26 22 43 50 28 45 32 48 44
32 12 -16 13 -15 14 6 0 12 -4 22 -10 22 -5 0 -10 4 -10 10 0 24 30 -6 44 -43
11 -33 15 -37 15 -17 0 14 -3 31 -8 39 -6 10 -3 20 12 32 22 18 22 18 -16 19
-34 0 -106 35 -120 58 -9 14 7 27 37 30 17 2 36 11 44 20 13 16 13 16 8 0 -3
-10 -2 -18 2 -19 56 -6 72 -3 72 14 0 9 -6 17 -12 17 -8 0 -4 8 7 17 l20 16
-20 -8 c-53 -20 -58 -19 -50 6 4 13 10 30 12 37 7 18 2 15 -40 -19z"/>
<path d="M785 900 c-4 -6 7 -10 24 -10 17 0 31 5 31 10 0 6 -11 10 -24 10 -14
0 -28 -4 -31 -10z"/>
<path d="M562 880 c-11 -18 -10 -22 10 -29 25 -9 35 6 24 35 -8 20 -19 18 -34
-6z"/>
<path d="M575 820 c3 -5 8 -10 11 -10 2 0 4 5 4 10 0 6 -5 10 -11 10 -5 0 -7
-4 -4 -10z"/>
<path d="M412 760 c0 -14 2 -19 5 -12 2 6 2 18 0 25 -3 6 -5 1 -5 -13z"/>
<path d="M766 765 c4 -9 1 -15 -7 -15 -10 0 -10 -3 -2 -11 13 -13 43 -5 43 10
0 6 -9 15 -20 21 -16 9 -18 8 -14 -5z"/>
<path d="M420 720 c0 -20 53 -112 76 -130 16 -13 17 -13 9 0 -5 8 -19 29 -31
45 -13 17 -30 46 -38 65 -8 19 -15 28 -16 20z"/>
<path d="M81 478 c-1 -20 4 -28 15 -28 12 0 14 4 7 13 -6 6 -13 19 -16 27 -3
9 -6 3 -6 -12z"/>
<path d="M402 477 c-8 -9 -11 -20 -8 -26 5 -8 -15 -8 -34 -1 -3 1 -8 2 -12 1
-5 0 -8 6 -8 14 0 8 -4 15 -10 15 -6 0 -5 -10 2 -25 20 -44 95 -26 86 21 -3
16 -4 16 -16 1z"/>
<path d="M710 448 c-10 -21 -10 -21 3 -5 23 28 63 22 75 -12 21 -59 -47 -98
-74 -43 -19 38 -27 39 -12 2 19 -46 64 -53 91 -15 16 22 16 28 3 60 -12 29
-20 35 -45 35 -22 0 -33 -7 -41 -22z"/>
<path d="M725 431 c-3 -11 -1 -30 5 -42 l12 -21 21 20 c17 17 19 25 9 44 -6
13 -11 17 -11 9 -1 -10 -4 -11 -15 -2 -11 10 -16 8 -21 -8z"/>
<path d="M897 395 c-16 -14 -32 -23 -37 -20 -5 3 -11 1 -15 -5 -4 -6 -11 -8
-16 -5 -5 3 -6 -1 -3 -9 3 -9 1 -16 -6 -16 -6 0 -9 -4 -6 -9 3 -5 -8 -14 -25
-20 -35 -12 -34 -30 1 -48 21 -10 57 -7 46 5 -3 2 0 14 6 26 7 11 13 27 14 35
2 8 20 31 40 52 43 44 43 51 1 14z"/>
<path d="M236 395 c-11 -8 -15 -15 -9 -15 6 0 13 -8 16 -17 2 -10 8 -26 12
-35 6 -15 2 -18 -22 -18 -16 0 -52 6 -79 14 -104 29 -99 30 -99 -16 l0 -42 78
-20 c42 -11 77 -23 77 -27 0 -4 -11 -20 -24 -36 -23 -27 -23 -31 -11 -68 12
-34 12 -40 -3 -53 -9 -7 -12 -11 -5 -8 7 4 13 -4 15 -21 2 -22 8 -28 28 -28
24 0 25 4 31 65 3 36 6 59 7 53 2 -15 22 -17 22 -3 0 6 -11 15 -25 20 -14 5
-25 17 -25 28 0 22 35 57 48 48 9 -6 24 17 26 40 1 13 32 45 38 39 3 -3 5 1 5
9 0 12 -6 11 -25 -5 -43 -33 -48 -25 -24 41 5 13 3 13 -11 1 -19 -15 -21 -11
-17 42 2 31 1 31 -24 12z"/>
<path d="M65 390 c27 -12 43 -12 25 0 -8 5 -22 9 -30 9 -10 0 -8 -3 5 -9z"/>
<path d="M899 363 l-24 -27 33 23 c32 23 39 31 24 31 -5 0 -19 -12 -33 -27z"/>
<path d="M946 371 c-10 -11 -16 -27 -14 -37 3 -16 4 -16 19 -1 9 9 19 13 23
10 9 -9 7 20 -2 35 -7 10 -13 8 -26 -7z"/>
<path d="M112 365 c-11 -12 -10 -15 3 -15 8 0 15 7 15 15 0 18 -2 18 -18 0z"/>
<path d="M320 260 c-9 -6 -10 -10 -3 -10 6 0 15 5 18 10 8 12 4 12 -15 0z"/>
<path d="M741 243 c-8 -9 -16 -28 -17 -42 -2 -14 -8 -27 -14 -29 -16 -6 -12
-20 9 -27 27 -8 91 25 91 47 0 10 7 18 16 18 9 0 14 7 12 18 -2 12 -11 16 -30
14 -14 -2 -29 2 -33 7 -9 15 -17 13 -34 -6z"/>
<path d="M950 233 c-19 -6 -50 -12 -67 -12 -23 -1 -33 -6 -33 -17 0 -9 -5 -12
-12 -8 -8 5 -9 0 -5 -17 4 -13 7 -30 7 -37 0 -7 5 -10 10 -7 6 3 10 14 10 24
0 15 10 19 55 23 61 5 78 16 73 44 -3 17 -6 18 -38 7z"/>
<path d="M255 180 c3 -5 8 -10 11 -10 2 0 4 5 4 10 0 6 -5 10 -11 10 -5 0 -7
-4 -4 -10z"/>
<path d="M936 164 c-9 -8 -16 -23 -16 -31 0 -13 5 -12 25 7 14 13 25 27 25 32
0 13 -17 9 -34 -8z"/>
<path d="M745 128 c-65 -21 -101 -32 -115 -33 -25 -3 -68 -23 -75 -35 -10 -17
1 -23 39 -22 35 1 186 78 186 94 0 4 -1 8 -2 7 -2 -1 -16 -6 -33 -11z"/>
<path d="M722 63 c-40 -31 -70 -58 -68 -61 7 -6 68 33 90 57 24 27 36 18 36
-25 0 -23 5 -34 14 -34 12 0 13 12 9 58 -3 31 -6 58 -7 59 -1 1 -34 -24 -74
-54z"/>
</g>
</svg>
